<svg xmlns="http://www.w3.org/2000/svg" viewBox="0 0 1200 900" fill="none">
  <rect width="1200" height="900" rx="56" fill="#11151D"/>
  <rect x="48" y="48" width="1104" height="804" rx="40" fill="url(#bg)"/>
  <circle cx="952" cy="172" r="118" fill="#8B5CF6" fill-opacity=".2"/>
  <circle cx="244" cy="720" r="150" fill="#F59E0B" fill-opacity=".14"/>
  <rect x="166" y="628" width="868" height="52" rx="26" fill="#232834"/>
  <rect x="302" y="360" width="240" height="186" rx="28" fill="#171B22" stroke="#363D4B"/>
  <rect x="332" y="392" width="180" height="122" rx="18" fill="url(#screen)"/>
  <path d="M655 563c0-92 74-166 166-166s166 74 166 166v39H655v-39Z" fill="#171B22" stroke="#363D4B"/>
  <rect x="694" y="303" width="92" height="142" rx="44" fill="#262D38"/>
  <rect x="730" y="228" width="20" height="104" rx="10" fill="#3A4250"/>
  <rect x="566" y="606" width="250" height="26" rx="13" fill="#8B5CF6" fill-opacity=".3"/>
  <rect x="180" y="188" width="222" height="18" rx="9" fill="#232834"/>
  <rect x="180" y="224" width="162" height="18" rx="9" fill="#2B3240"/>
  <rect x="180" y="260" width="268" height="18" rx="9" fill="#232834"/>
  <g opacity=".9">
    <rect x="854" y="308" width="28" height="158" rx="14" fill="#F59E0B"/>
    <rect x="896" y="338" width="28" height="128" rx="14" fill="#8B5CF6"/>
    <rect x="938" y="278" width="28" height="188" rx="14" fill="#F59E0B"/>
    <rect x="980" y="322" width="28" height="144" rx="14" fill="#8B5CF6"/>
  </g>
  <defs>
    <linearGradient id="bg" x1="103" x2="1098" y1="104" y2="811" gradientUnits="userSpaceOnUse">
      <stop stop-color="#1A1D24"/>
      <stop offset="1" stop-color="#131720"/>
    </linearGradient>
    <linearGradient id="screen" x1="332" x2="512" y1="392" y2="514" gradientUnits="userSpaceOnUse">
      <stop stop-color="#F59E0B" stop-opacity=".85"/>
      <stop offset="1" stop-color="#8B5CF6" stop-opacity=".95"/>
    </linearGradient>
  </defs>
</svg>
